<svg width="881" height="182" viewBox="0 0 881 182" fill="none" xmlns="http://www.w3.org/2000/svg">
<g clip-path="url(#clip0_1_7)">
<rect width="881" height="182" fill="#FFDA30"/>
<path d="M286.211 121L269.461 66.4197H269.033C269.096 67.7204 269.191 69.6873 269.318 72.3203C269.477 74.9216 269.62 77.6974 269.746 80.6477C269.873 83.598 269.937 86.2628 269.937 88.642V121H256.756V51.4304H276.837L293.301 104.631H293.587L311.05 51.4304H331.131V121H317.379V88.071C317.379 85.8821 317.411 83.3601 317.474 80.505C317.57 77.6499 317.681 74.9375 317.808 72.3679C317.934 69.7666 318.03 67.8156 318.093 66.5149H317.665L299.725 121H286.211ZM403.08 66.8004C408.759 66.8004 413.327 68.3549 416.785 71.4638C420.243 74.541 421.972 79.4898 421.972 86.3104V121H407.458V89.9268C407.458 86.12 406.76 83.2491 405.364 81.3139C404 79.3788 401.843 78.4112 398.893 78.4112C394.451 78.4112 391.422 79.9181 389.804 82.9318C388.186 85.9456 387.377 90.2917 387.377 95.9702V121H372.864V67.7997H383.951L385.902 74.6044H386.711C387.853 72.7644 389.265 71.2734 390.946 70.1314C392.659 68.9894 394.547 68.1487 396.609 67.6094C398.702 67.0701 400.86 66.8004 403.08 66.8004ZM453.759 121.952C447.826 121.952 442.988 119.636 439.245 115.004C435.533 110.341 433.678 103.504 433.678 94.495C433.678 85.3904 435.565 78.5064 439.34 73.843C443.115 69.148 448.048 66.8004 454.139 66.8004C456.677 66.8004 458.914 67.1494 460.849 67.8473C462.784 68.5452 464.449 69.4811 465.845 70.6548C467.273 71.8286 468.478 73.1451 469.462 74.6044H469.937C469.747 73.5893 469.509 72.0983 469.224 70.1314C468.97 68.1328 468.843 66.0867 468.843 63.9929V46.9574H483.404V121H472.269L469.462 114.1H468.843C467.923 115.559 466.765 116.892 465.369 118.097C464.005 119.271 462.371 120.207 460.468 120.905C458.565 121.603 456.328 121.952 453.759 121.952ZM458.85 110.388C462.816 110.388 465.607 109.215 467.225 106.867C468.875 104.488 469.747 100.919 469.842 96.1605V94.5902C469.842 89.4193 469.049 85.4697 467.463 82.7415C465.877 79.9815 462.927 78.6016 458.612 78.6016C455.408 78.6016 452.902 79.9815 451.094 82.7415C449.286 85.5014 448.381 89.4827 448.381 94.6854C448.381 99.888 449.286 103.806 451.094 106.439C452.934 109.072 455.519 110.388 458.85 110.388ZM585.189 51.4304L567.487 121H550.69L541.268 84.4545C541.077 83.7566 540.824 82.6939 540.506 81.2663C540.189 79.8388 539.856 78.2843 539.507 76.603C539.158 74.8899 538.841 73.2879 538.555 71.7969C538.302 70.2742 538.127 69.0687 538.032 68.1804C537.937 69.0687 537.746 70.2583 537.461 71.7493C537.207 73.2403 536.906 74.8265 536.557 76.5078C536.24 78.1892 535.922 79.7595 535.605 81.2188C535.288 82.678 535.034 83.7884 534.844 84.5497L525.469 121H508.719L490.97 51.4304H505.484L514.382 89.4034C514.636 90.5455 514.921 91.9096 515.239 93.4957C515.588 95.0819 515.921 96.7474 516.238 98.4922C516.587 100.205 516.888 101.871 517.142 103.489C517.428 105.075 517.634 106.455 517.761 107.629C517.919 106.423 518.125 105.027 518.379 103.441C518.633 101.823 518.903 100.189 519.188 98.5398C519.505 96.8584 519.823 95.304 520.14 93.8764C520.457 92.4489 520.743 91.291 520.996 90.4027L531.132 51.4304H545.075L555.21 90.4027C555.432 91.2592 555.686 92.4171 555.972 93.8764C556.289 95.304 556.606 96.8584 556.923 98.5398C557.241 100.221 557.526 101.871 557.78 103.489C558.065 105.075 558.272 106.455 558.398 107.629C558.62 106.042 558.922 104.123 559.303 101.871C559.715 99.5866 560.143 97.3184 560.587 95.0661C561.063 92.8137 561.476 90.9261 561.825 89.4034L570.675 51.4304H585.189ZM648.334 66.8004C654.013 66.8004 658.581 68.3549 662.039 71.4638C665.497 74.541 667.226 79.4898 667.226 86.3104V121H652.712V89.9268C652.712 86.12 652.014 83.2491 650.619 81.3139C649.254 79.3788 647.097 78.4112 644.147 78.4112C639.706 78.4112 636.676 79.9181 635.058 82.9318C633.44 85.9456 632.631 90.2917 632.631 95.9702V121H618.118V67.7997H629.205L631.156 74.6044H631.965C633.107 72.7644 634.519 71.2734 636.2 70.1314C637.913 68.9894 639.801 68.1487 641.863 67.6094C643.957 67.0701 646.114 66.8004 648.334 66.8004ZM697.728 144.412C690.305 144.412 684.626 143.111 680.692 140.51C676.79 137.94 674.839 134.324 674.839 129.661C674.839 126.456 675.839 123.776 677.837 121.619C679.836 119.461 682.77 117.923 686.641 117.003C685.15 116.368 683.849 115.337 682.739 113.91C681.628 112.451 681.073 110.912 681.073 109.294C681.073 107.264 681.66 105.582 682.834 104.25C684.008 102.886 685.705 101.554 687.925 100.253C685.134 99.0474 682.913 97.1122 681.263 94.4474C679.646 91.7827 678.837 88.642 678.837 85.0256C678.837 81.1553 679.677 77.8719 681.359 75.1754C683.072 72.4472 685.546 70.3693 688.782 68.9418C692.049 67.5142 696.015 66.8004 700.678 66.8004C701.662 66.8004 702.804 66.8639 704.104 66.9908C705.405 67.1177 706.595 67.2604 707.673 67.419C708.784 67.5777 709.529 67.7046 709.91 67.7997H728.468V75.1754L720.141 77.3168C720.902 78.4905 721.473 79.7436 721.854 81.076C722.234 82.4084 722.425 83.8201 722.425 85.3111C722.425 91.0213 720.426 95.4785 716.429 98.6825C712.464 101.855 706.944 103.441 699.869 103.441C698.188 103.346 696.602 103.219 695.111 103.06C694.381 103.631 693.826 104.234 693.445 104.869C693.065 105.503 692.874 106.169 692.874 106.867C692.874 107.565 693.16 108.152 693.731 108.628C694.334 109.072 695.222 109.421 696.396 109.675C697.601 109.897 699.092 110.008 700.869 110.008H709.91C715.747 110.008 720.188 111.261 723.234 113.767C726.311 116.273 727.849 119.953 727.849 124.807C727.849 131.025 725.248 135.847 720.045 139.273C714.875 142.699 707.435 144.412 697.728 144.412ZM698.347 134.942C701.804 134.942 704.771 134.609 707.245 133.943C709.751 133.309 711.67 132.389 713.003 131.183C714.335 130.009 715.001 128.598 715.001 126.948C715.001 125.616 714.605 124.553 713.812 123.76C713.05 122.999 711.877 122.459 710.29 122.142C708.736 121.825 706.737 121.666 704.295 121.666H696.776C695 121.666 693.398 121.952 691.97 122.523C690.574 123.094 689.464 123.887 688.639 124.902C687.814 125.949 687.402 127.154 687.402 128.518C687.402 130.517 688.354 132.087 690.257 133.229C692.192 134.371 694.889 134.942 698.347 134.942ZM700.678 94.5902C703.406 94.5902 705.405 93.7495 706.674 92.0682C707.943 90.3868 708.577 88.1027 708.577 85.2159C708.577 82.0118 707.911 79.6167 706.579 78.0305C705.278 76.4126 703.311 75.6037 700.678 75.6037C698.013 75.6037 696.015 76.4126 694.683 78.0305C693.35 79.6167 692.684 82.0118 692.684 85.2159C692.684 88.1027 693.334 90.3868 694.635 92.0682C695.967 93.7495 697.982 94.5902 700.678 94.5902ZM785.618 94.3047C785.618 98.746 785.015 102.68 783.81 106.106C782.636 109.532 780.907 112.435 778.623 114.814C776.37 117.161 773.642 118.938 770.438 120.143C767.266 121.349 763.681 121.952 759.684 121.952C755.941 121.952 752.499 121.349 749.358 120.143C746.249 118.938 743.537 117.161 741.221 114.814C738.937 112.435 737.16 109.532 735.891 106.106C734.654 102.68 734.035 98.746 734.035 94.3047C734.035 88.4041 735.082 83.4077 737.176 79.3153C739.27 75.223 742.252 72.1141 746.122 69.9886C749.992 67.8632 754.608 66.8004 759.969 66.8004C764.95 66.8004 769.36 67.8632 773.198 69.9886C777.068 72.1141 780.098 75.223 782.287 79.3153C784.508 83.4077 785.618 88.4041 785.618 94.3047ZM748.834 94.3047C748.834 97.7943 749.215 100.729 749.977 103.108C750.738 105.487 751.928 107.28 753.545 108.485C755.163 109.691 757.273 110.293 759.874 110.293C762.444 110.293 764.522 109.691 766.108 108.485C767.726 107.28 768.9 105.487 769.629 103.108C770.391 100.729 770.771 97.7943 770.771 94.3047C770.771 90.7834 770.391 87.8648 769.629 85.549C768.9 83.2015 767.726 81.4408 766.108 80.267C764.49 79.0933 762.38 78.5064 759.779 78.5064C755.941 78.5064 753.149 79.8229 751.404 82.456C749.691 85.089 748.834 89.0386 748.834 94.3047Z" fill="black"/>
<path d="M347.689 121V67.8526H358.958V121H347.689Z" fill="black"/>
<path d="M592.689 121V67.8526H603.958V121H592.689Z" fill="black"/>
<path d="M258.797 149V134.723H261.824V149H258.797ZM271.385 137.877C272.55 137.877 273.488 138.196 274.197 138.834C274.907 139.465 275.262 140.481 275.262 141.881V149H272.283V142.623C272.283 141.842 272.14 141.253 271.854 140.855C271.574 140.458 271.131 140.26 270.525 140.26C269.614 140.26 268.992 140.569 268.66 141.188C268.328 141.806 268.162 142.698 268.162 143.863V149H265.184V138.082H267.459L267.859 139.479H268.025C268.26 139.101 268.549 138.795 268.895 138.561C269.246 138.326 269.633 138.154 270.057 138.043C270.486 137.932 270.929 137.877 271.385 137.877ZM282.928 146.822C283.253 146.822 283.569 146.79 283.875 146.725C284.188 146.66 284.497 146.578 284.803 146.48V148.697C284.484 148.84 284.087 148.958 283.611 149.049C283.143 149.146 282.628 149.195 282.068 149.195C281.417 149.195 280.831 149.091 280.311 148.883C279.796 148.668 279.389 148.3 279.09 147.779C278.797 147.252 278.65 146.52 278.65 145.582V140.318H277.225V139.059L278.865 138.062L279.725 135.758H281.629V138.082H284.686V140.318H281.629V145.582C281.629 145.999 281.746 146.311 281.98 146.52C282.221 146.721 282.537 146.822 282.928 146.822ZM291.521 137.877C292.531 137.877 293.4 138.072 294.129 138.463C294.858 138.847 295.421 139.407 295.818 140.143C296.215 140.878 296.414 141.777 296.414 142.838V144.283H289.373C289.406 145.123 289.656 145.784 290.125 146.266C290.6 146.741 291.258 146.979 292.098 146.979C292.794 146.979 293.432 146.907 294.012 146.764C294.591 146.62 295.187 146.406 295.799 146.119V148.424C295.258 148.691 294.692 148.886 294.1 149.01C293.514 149.133 292.801 149.195 291.961 149.195C290.867 149.195 289.897 148.993 289.051 148.59C288.211 148.186 287.55 147.571 287.068 146.744C286.593 145.917 286.355 144.876 286.355 143.619C286.355 142.343 286.57 141.282 287 140.436C287.436 139.583 288.042 138.945 288.816 138.521C289.591 138.092 290.493 137.877 291.521 137.877ZM291.541 139.996C290.962 139.996 290.48 140.182 290.096 140.553C289.718 140.924 289.5 141.507 289.441 142.301H293.621C293.615 141.858 293.533 141.464 293.377 141.119C293.227 140.774 292.999 140.501 292.693 140.299C292.394 140.097 292.01 139.996 291.541 139.996ZM304.93 137.877C305.079 137.877 305.252 137.887 305.447 137.906C305.649 137.919 305.812 137.939 305.936 137.965L305.711 140.758C305.613 140.725 305.473 140.702 305.291 140.689C305.115 140.67 304.962 140.66 304.832 140.66C304.448 140.66 304.074 140.709 303.709 140.807C303.351 140.904 303.029 141.064 302.742 141.285C302.456 141.5 302.228 141.786 302.059 142.145C301.896 142.496 301.814 142.929 301.814 143.443V149H298.836V138.082H301.092L301.531 139.918H301.678C301.893 139.547 302.16 139.208 302.479 138.902C302.804 138.59 303.172 138.342 303.582 138.16C303.999 137.971 304.448 137.877 304.93 137.877ZM314.119 137.877C315.285 137.877 316.222 138.196 316.932 138.834C317.641 139.465 317.996 140.481 317.996 141.881V149H315.018V142.623C315.018 141.842 314.874 141.253 314.588 140.855C314.308 140.458 313.865 140.26 313.26 140.26C312.348 140.26 311.727 140.569 311.395 141.188C311.062 141.806 310.896 142.698 310.896 143.863V149H307.918V138.082H310.193L310.594 139.479H310.76C310.994 139.101 311.284 138.795 311.629 138.561C311.98 138.326 312.368 138.154 312.791 138.043C313.221 137.932 313.663 137.877 314.119 137.877ZM325.535 137.857C327 137.857 328.123 138.176 328.904 138.814C329.686 139.452 330.076 140.423 330.076 141.725V149H327.996L327.42 147.516H327.342C327.029 147.906 326.71 148.225 326.385 148.473C326.059 148.72 325.685 148.902 325.262 149.02C324.839 149.137 324.324 149.195 323.719 149.195C323.074 149.195 322.495 149.072 321.98 148.824C321.473 148.577 321.072 148.199 320.779 147.691C320.486 147.177 320.34 146.526 320.34 145.738C320.34 144.579 320.747 143.727 321.561 143.18C322.374 142.626 323.595 142.32 325.223 142.262L327.117 142.203V141.725C327.117 141.152 326.967 140.732 326.668 140.465C326.368 140.198 325.952 140.064 325.418 140.064C324.891 140.064 324.373 140.139 323.865 140.289C323.357 140.439 322.85 140.628 322.342 140.855L321.355 138.844C321.935 138.538 322.583 138.297 323.299 138.121C324.021 137.945 324.767 137.857 325.535 137.857ZM327.117 143.941L325.965 143.98C325.001 144.007 324.331 144.179 323.953 144.498C323.582 144.817 323.396 145.237 323.396 145.758C323.396 146.214 323.53 146.539 323.797 146.734C324.064 146.923 324.412 147.018 324.842 147.018C325.48 147.018 326.017 146.829 326.453 146.451C326.896 146.074 327.117 145.536 327.117 144.84V143.941ZM337.752 146.822C338.077 146.822 338.393 146.79 338.699 146.725C339.012 146.66 339.321 146.578 339.627 146.48V148.697C339.308 148.84 338.911 148.958 338.436 149.049C337.967 149.146 337.452 149.195 336.893 149.195C336.242 149.195 335.656 149.091 335.135 148.883C334.62 148.668 334.214 148.3 333.914 147.779C333.621 147.252 333.475 146.52 333.475 145.582V140.318H332.049V139.059L333.689 138.062L334.549 135.758H336.453V138.082H339.51V140.318H336.453V145.582C336.453 145.999 336.57 146.311 336.805 146.52C337.046 146.721 337.361 146.822 337.752 146.822ZM344.822 138.082V149H341.844V138.082H344.822ZM343.338 133.805C343.781 133.805 344.161 133.909 344.48 134.117C344.799 134.319 344.959 134.7 344.959 135.26C344.959 135.813 344.799 136.197 344.48 136.412C344.161 136.62 343.781 136.725 343.338 136.725C342.889 136.725 342.505 136.62 342.186 136.412C341.873 136.197 341.717 135.813 341.717 135.26C341.717 134.7 341.873 134.319 342.186 134.117C342.505 133.909 342.889 133.805 343.338 133.805ZM357.879 143.521C357.879 144.433 357.755 145.24 357.508 145.943C357.267 146.646 356.912 147.242 356.443 147.73C355.981 148.212 355.421 148.577 354.764 148.824C354.113 149.072 353.377 149.195 352.557 149.195C351.788 149.195 351.082 149.072 350.438 148.824C349.799 148.577 349.243 148.212 348.768 147.73C348.299 147.242 347.934 146.646 347.674 145.943C347.42 145.24 347.293 144.433 347.293 143.521C347.293 142.311 347.508 141.285 347.938 140.445C348.367 139.605 348.979 138.967 349.773 138.531C350.568 138.095 351.515 137.877 352.615 137.877C353.637 137.877 354.542 138.095 355.33 138.531C356.124 138.967 356.746 139.605 357.195 140.445C357.651 141.285 357.879 142.311 357.879 143.521ZM350.33 143.521C350.33 144.238 350.408 144.84 350.564 145.328C350.721 145.816 350.965 146.184 351.297 146.432C351.629 146.679 352.062 146.803 352.596 146.803C353.123 146.803 353.549 146.679 353.875 146.432C354.207 146.184 354.448 145.816 354.598 145.328C354.754 144.84 354.832 144.238 354.832 143.521C354.832 142.799 354.754 142.2 354.598 141.725C354.448 141.243 354.207 140.882 353.875 140.641C353.543 140.4 353.11 140.279 352.576 140.279C351.788 140.279 351.215 140.549 350.857 141.09C350.506 141.63 350.33 142.441 350.33 143.521ZM366.541 137.877C367.706 137.877 368.644 138.196 369.354 138.834C370.063 139.465 370.418 140.481 370.418 141.881V149H367.439V142.623C367.439 141.842 367.296 141.253 367.01 140.855C366.73 140.458 366.287 140.26 365.682 140.26C364.77 140.26 364.148 140.569 363.816 141.188C363.484 141.806 363.318 142.698 363.318 143.863V149H360.34V138.082H362.615L363.016 139.479H363.182C363.416 139.101 363.706 138.795 364.051 138.561C364.402 138.326 364.79 138.154 365.213 138.043C365.643 137.932 366.085 137.877 366.541 137.877ZM377.957 137.857C379.422 137.857 380.545 138.176 381.326 138.814C382.107 139.452 382.498 140.423 382.498 141.725V149H380.418L379.842 147.516H379.764C379.451 147.906 379.132 148.225 378.807 148.473C378.481 148.72 378.107 148.902 377.684 149.02C377.26 149.137 376.746 149.195 376.141 149.195C375.496 149.195 374.917 149.072 374.402 148.824C373.895 148.577 373.494 148.199 373.201 147.691C372.908 147.177 372.762 146.526 372.762 145.738C372.762 144.579 373.169 143.727 373.982 143.18C374.796 142.626 376.017 142.32 377.645 142.262L379.539 142.203V141.725C379.539 141.152 379.389 140.732 379.09 140.465C378.79 140.198 378.374 140.064 377.84 140.064C377.312 140.064 376.795 140.139 376.287 140.289C375.779 140.439 375.271 140.628 374.764 140.855L373.777 138.844C374.357 138.538 375.005 138.297 375.721 138.121C376.443 137.945 377.189 137.857 377.957 137.857ZM379.539 143.941L378.387 143.98C377.423 144.007 376.753 144.179 376.375 144.498C376.004 144.817 375.818 145.237 375.818 145.758C375.818 146.214 375.952 146.539 376.219 146.734C376.486 146.923 376.834 147.018 377.264 147.018C377.902 147.018 378.439 146.829 378.875 146.451C379.318 146.074 379.539 145.536 379.539 144.84V143.941ZM388.553 149H385.574V133.805H388.553V149ZM401.678 134.723C403.52 134.723 404.865 135.12 405.711 135.914C406.557 136.702 406.98 137.789 406.98 139.176C406.98 139.801 406.886 140.4 406.697 140.973C406.508 141.539 406.199 142.044 405.77 142.486C405.346 142.929 404.78 143.281 404.07 143.541C403.361 143.795 402.485 143.922 401.443 143.922H400.145V149H397.117V134.723H401.678ZM401.521 137.203H400.145V141.441H401.141C401.707 141.441 402.199 141.367 402.615 141.217C403.032 141.067 403.354 140.833 403.582 140.514C403.81 140.195 403.924 139.785 403.924 139.283C403.924 138.58 403.729 138.059 403.338 137.721C402.947 137.376 402.342 137.203 401.521 137.203ZM415.535 137.877C415.685 137.877 415.857 137.887 416.053 137.906C416.255 137.919 416.417 137.939 416.541 137.965L416.316 140.758C416.219 140.725 416.079 140.702 415.896 140.689C415.721 140.67 415.568 140.66 415.438 140.66C415.053 140.66 414.679 140.709 414.314 140.807C413.956 140.904 413.634 141.064 413.348 141.285C413.061 141.5 412.833 141.786 412.664 142.145C412.501 142.496 412.42 142.929 412.42 143.443V149H409.441V138.082H411.697L412.137 139.918H412.283C412.498 139.547 412.765 139.208 413.084 138.902C413.41 138.59 413.777 138.342 414.188 138.16C414.604 137.971 415.053 137.877 415.535 137.877ZM423.025 137.877C424.035 137.877 424.904 138.072 425.633 138.463C426.362 138.847 426.925 139.407 427.322 140.143C427.719 140.878 427.918 141.777 427.918 142.838V144.283H420.877C420.91 145.123 421.16 145.784 421.629 146.266C422.104 146.741 422.762 146.979 423.602 146.979C424.298 146.979 424.936 146.907 425.516 146.764C426.095 146.62 426.691 146.406 427.303 146.119V148.424C426.762 148.691 426.196 148.886 425.604 149.01C425.018 149.133 424.305 149.195 423.465 149.195C422.371 149.195 421.401 148.993 420.555 148.59C419.715 148.186 419.054 147.571 418.572 146.744C418.097 145.917 417.859 144.876 417.859 143.619C417.859 142.343 418.074 141.282 418.504 140.436C418.94 139.583 419.546 138.945 420.32 138.521C421.095 138.092 421.997 137.877 423.025 137.877ZM423.045 139.996C422.465 139.996 421.984 140.182 421.6 140.553C421.222 140.924 421.004 141.507 420.945 142.301H425.125C425.118 141.858 425.037 141.464 424.881 141.119C424.731 140.774 424.503 140.501 424.197 140.299C423.898 140.097 423.514 139.996 423.045 139.996ZM429.373 144.859V142.418H434.617V144.859H429.373ZM444.402 145.758C444.402 146.5 444.227 147.128 443.875 147.643C443.53 148.15 443.012 148.538 442.322 148.805C441.632 149.065 440.773 149.195 439.744 149.195C438.982 149.195 438.328 149.146 437.781 149.049C437.241 148.951 436.694 148.788 436.141 148.561V146.1C436.733 146.367 437.368 146.588 438.045 146.764C438.729 146.933 439.327 147.018 439.842 147.018C440.421 147.018 440.835 146.933 441.082 146.764C441.336 146.588 441.463 146.36 441.463 146.08C441.463 145.898 441.411 145.735 441.307 145.592C441.209 145.442 440.994 145.276 440.662 145.094C440.33 144.905 439.809 144.661 439.1 144.361C438.416 144.075 437.853 143.785 437.41 143.492C436.974 143.199 436.648 142.854 436.434 142.457C436.225 142.053 436.121 141.542 436.121 140.924C436.121 139.915 436.512 139.156 437.293 138.648C438.081 138.134 439.132 137.877 440.447 137.877C441.124 137.877 441.769 137.945 442.381 138.082C442.999 138.219 443.634 138.437 444.285 138.736L443.387 140.885C442.846 140.65 442.335 140.458 441.854 140.309C441.378 140.159 440.893 140.084 440.398 140.084C439.962 140.084 439.633 140.143 439.412 140.26C439.191 140.377 439.08 140.556 439.08 140.797C439.08 140.973 439.135 141.129 439.246 141.266C439.363 141.402 439.585 141.555 439.91 141.725C440.242 141.887 440.727 142.099 441.365 142.359C441.984 142.613 442.521 142.88 442.977 143.16C443.432 143.434 443.784 143.775 444.031 144.186C444.279 144.589 444.402 145.113 444.402 145.758ZM451.16 149.195C450.079 149.195 449.158 149 448.396 148.609C447.635 148.212 447.055 147.6 446.658 146.773C446.261 145.947 446.062 144.889 446.062 143.6C446.062 142.265 446.287 141.178 446.736 140.338C447.192 139.492 447.82 138.87 448.621 138.473C449.428 138.076 450.363 137.877 451.424 137.877C452.179 137.877 452.83 137.952 453.377 138.102C453.93 138.245 454.412 138.417 454.822 138.619L453.943 140.924C453.475 140.735 453.038 140.582 452.635 140.465C452.231 140.341 451.827 140.279 451.424 140.279C450.903 140.279 450.47 140.403 450.125 140.65C449.78 140.891 449.523 141.256 449.354 141.744C449.184 142.232 449.1 142.844 449.1 143.58C449.1 144.303 449.191 144.902 449.373 145.377C449.555 145.852 449.819 146.207 450.164 146.441C450.509 146.669 450.929 146.783 451.424 146.783C452.042 146.783 452.592 146.702 453.074 146.539C453.556 146.37 454.025 146.135 454.48 145.836V148.385C454.025 148.671 453.546 148.876 453.045 149C452.55 149.13 451.922 149.195 451.16 149.195ZM459.998 133.805V136.9C459.998 137.441 459.979 137.955 459.939 138.443C459.907 138.932 459.881 139.277 459.861 139.479H460.018C460.252 139.101 460.529 138.795 460.848 138.561C461.173 138.326 461.531 138.154 461.922 138.043C462.312 137.932 462.732 137.877 463.182 137.877C463.969 137.877 464.656 138.017 465.242 138.297C465.828 138.57 466.284 139.003 466.609 139.596C466.935 140.182 467.098 140.943 467.098 141.881V149H464.119V142.623C464.119 141.842 463.976 141.253 463.689 140.855C463.403 140.458 462.96 140.26 462.361 140.26C461.762 140.26 461.29 140.4 460.945 140.68C460.6 140.953 460.356 141.36 460.213 141.9C460.07 142.434 459.998 143.089 459.998 143.863V149H457.02V133.805H459.998ZM480.086 143.521C480.086 144.433 479.962 145.24 479.715 145.943C479.474 146.646 479.119 147.242 478.65 147.73C478.188 148.212 477.628 148.577 476.971 148.824C476.32 149.072 475.584 149.195 474.764 149.195C473.995 149.195 473.289 149.072 472.645 148.824C472.007 148.577 471.45 148.212 470.975 147.73C470.506 147.242 470.141 146.646 469.881 145.943C469.627 145.24 469.5 144.433 469.5 143.521C469.5 142.311 469.715 141.285 470.145 140.445C470.574 139.605 471.186 138.967 471.98 138.531C472.775 138.095 473.722 137.877 474.822 137.877C475.844 137.877 476.749 138.095 477.537 138.531C478.331 138.967 478.953 139.605 479.402 140.445C479.858 141.285 480.086 142.311 480.086 143.521ZM472.537 143.521C472.537 144.238 472.615 144.84 472.771 145.328C472.928 145.816 473.172 146.184 473.504 146.432C473.836 146.679 474.269 146.803 474.803 146.803C475.33 146.803 475.757 146.679 476.082 146.432C476.414 146.184 476.655 145.816 476.805 145.328C476.961 144.84 477.039 144.238 477.039 143.521C477.039 142.799 476.961 142.2 476.805 141.725C476.655 141.243 476.414 140.882 476.082 140.641C475.75 140.4 475.317 140.279 474.783 140.279C473.995 140.279 473.423 140.549 473.064 141.09C472.713 141.63 472.537 142.441 472.537 143.521ZM492.469 143.521C492.469 144.433 492.345 145.24 492.098 145.943C491.857 146.646 491.502 147.242 491.033 147.73C490.571 148.212 490.011 148.577 489.354 148.824C488.702 149.072 487.967 149.195 487.146 149.195C486.378 149.195 485.672 149.072 485.027 148.824C484.389 148.577 483.833 148.212 483.357 147.73C482.889 147.242 482.524 146.646 482.264 145.943C482.01 145.24 481.883 144.433 481.883 143.521C481.883 142.311 482.098 141.285 482.527 140.445C482.957 139.605 483.569 138.967 484.363 138.531C485.158 138.095 486.105 137.877 487.205 137.877C488.227 137.877 489.132 138.095 489.92 138.531C490.714 138.967 491.336 139.605 491.785 140.445C492.241 141.285 492.469 142.311 492.469 143.521ZM484.92 143.521C484.92 144.238 484.998 144.84 485.154 145.328C485.311 145.816 485.555 146.184 485.887 146.432C486.219 146.679 486.652 146.803 487.186 146.803C487.713 146.803 488.139 146.679 488.465 146.432C488.797 146.184 489.038 145.816 489.188 145.328C489.344 144.84 489.422 144.238 489.422 143.521C489.422 142.799 489.344 142.2 489.188 141.725C489.038 141.243 488.797 140.882 488.465 140.641C488.133 140.4 487.7 140.279 487.166 140.279C486.378 140.279 485.805 140.549 485.447 141.09C485.096 141.63 484.92 142.441 484.92 143.521ZM497.908 149H494.93V133.805H497.908V149ZM504.021 138.082V149H501.043V138.082H504.021ZM502.537 133.805C502.98 133.805 503.361 133.909 503.68 134.117C503.999 134.319 504.158 134.7 504.158 135.26C504.158 135.813 503.999 136.197 503.68 136.412C503.361 136.62 502.98 136.725 502.537 136.725C502.088 136.725 501.704 136.62 501.385 136.412C501.072 136.197 500.916 135.813 500.916 135.26C500.916 134.7 501.072 134.319 501.385 134.117C501.704 133.909 502.088 133.805 502.537 133.805ZM513.357 137.877C514.523 137.877 515.46 138.196 516.17 138.834C516.88 139.465 517.234 140.481 517.234 141.881V149H514.256V142.623C514.256 141.842 514.113 141.253 513.826 140.855C513.546 140.458 513.104 140.26 512.498 140.26C511.587 140.26 510.965 140.569 510.633 141.188C510.301 141.806 510.135 142.698 510.135 143.863V149H507.156V138.082H509.432L509.832 139.479H509.998C510.232 139.101 510.522 138.795 510.867 138.561C511.219 138.326 511.606 138.154 512.029 138.043C512.459 137.932 512.902 137.877 513.357 137.877ZM523.494 153.805C521.971 153.805 520.805 153.538 519.998 153.004C519.197 152.477 518.797 151.734 518.797 150.777C518.797 150.12 519.002 149.57 519.412 149.127C519.822 148.684 520.424 148.368 521.219 148.18C520.913 148.049 520.646 147.838 520.418 147.545C520.19 147.245 520.076 146.93 520.076 146.598C520.076 146.181 520.197 145.836 520.438 145.562C520.678 145.283 521.027 145.009 521.482 144.742C520.91 144.495 520.454 144.098 520.115 143.551C519.783 143.004 519.617 142.359 519.617 141.617C519.617 140.823 519.79 140.149 520.135 139.596C520.486 139.036 520.994 138.609 521.658 138.316C522.329 138.023 523.143 137.877 524.1 137.877C524.301 137.877 524.536 137.89 524.803 137.916C525.07 137.942 525.314 137.971 525.535 138.004C525.763 138.036 525.916 138.062 525.994 138.082H529.803V139.596L528.094 140.035C528.25 140.276 528.367 140.533 528.445 140.807C528.523 141.08 528.562 141.37 528.562 141.676C528.562 142.848 528.152 143.762 527.332 144.42C526.518 145.071 525.385 145.396 523.934 145.396C523.589 145.377 523.263 145.351 522.957 145.318C522.807 145.436 522.693 145.559 522.615 145.689C522.537 145.82 522.498 145.956 522.498 146.1C522.498 146.243 522.557 146.363 522.674 146.461C522.798 146.552 522.98 146.624 523.221 146.676C523.468 146.721 523.774 146.744 524.139 146.744H525.994C527.192 146.744 528.104 147.001 528.729 147.516C529.36 148.03 529.676 148.785 529.676 149.781C529.676 151.057 529.142 152.047 528.074 152.75C527.013 153.453 525.486 153.805 523.494 153.805ZM523.621 151.861C524.331 151.861 524.939 151.793 525.447 151.656C525.962 151.526 526.355 151.337 526.629 151.09C526.902 150.849 527.039 150.559 527.039 150.221C527.039 149.947 526.958 149.729 526.795 149.566C526.639 149.41 526.398 149.299 526.072 149.234C525.753 149.169 525.343 149.137 524.842 149.137H523.299C522.934 149.137 522.605 149.195 522.312 149.312C522.026 149.43 521.798 149.592 521.629 149.801C521.46 150.016 521.375 150.263 521.375 150.543C521.375 150.953 521.57 151.275 521.961 151.51C522.358 151.744 522.911 151.861 523.621 151.861ZM524.1 143.58C524.66 143.58 525.07 143.408 525.33 143.062C525.59 142.717 525.721 142.249 525.721 141.656C525.721 140.999 525.584 140.507 525.311 140.182C525.044 139.85 524.64 139.684 524.1 139.684C523.553 139.684 523.143 139.85 522.869 140.182C522.596 140.507 522.459 140.999 522.459 141.656C522.459 142.249 522.592 142.717 522.859 143.062C523.133 143.408 523.546 143.58 524.1 143.58Z" fill="#403838"/>
<ellipse cx="140.5" cy="91.5" rx="87.5" ry="80.5" fill="#1C1A1A"/>
<g clip-path="url(#clip1_1_7)">
<path d="M178.602 32.4896L61.1768 91.7486L64.4285 98.3701L127.062 112.647L170.367 156.984L178.193 156.492L178.602 32.4896Z" fill="#FFDA30"/>
</g>
<path d="M157.549 65.9756L109.198 89.6901L110.738 92.6172L137.647 99.8706L157.092 119.835L160.399 119.754L157.549 65.9756Z" fill="#21201E"/>
<path d="M363.063 52.4439L347.26 56.743L347.863 57.503L357.211 60.0922L364.366 65.5495L365.488 65.6308L363.063 52.4439Z" fill="#21201E"/>
<path d="M608.063 53.4439L592.26 57.743L592.863 58.503L602.211 61.0922L609.366 66.5495L610.488 66.6308L608.063 53.4439Z" fill="#21201E"/>
</g>
<defs>
<clipPath id="clip0_1_7">
<rect width="881" height="182" fill="white"/>
</clipPath>
<clipPath id="clip1_1_7">
<rect width="218" height="140" fill="white" transform="translate(39 13)"/>
</clipPath>
</defs>
</svg>
